<svg width="400" height="300" viewBox="0 0 400 300" fill="none" xmlns="http://www.w3.org/2000/svg">
  <!-- Background -->
  <rect width="400" height="300" fill="#f1f5f9"/>
  
  <!-- Office Desk -->
  <rect x="50" y="200" width="300" height="20" fill="#8b5cf6"/>
  <rect x="50" y="200" width="300" height="20" fill="url(#deskGradient)"/>
  
  <!-- Computer Monitor -->
  <rect x="80" y="120" width="120" height="80" rx="5" fill="#64748b"/>
  <rect x="85" y="125" width="110" height="70" fill="#1e293b"/>
  
  <!-- Screen Content -->
  <rect x="95" y="135" width="90" height="50" fill="#f8fafc"/>
  <rect x="100" y="140" width="20" height="15" fill="#3b82f6"/>
  <rect x="125" y="140" width="20" height="15" fill="#10b981"/>
  <rect x="150" y="140" width="20" height="15" fill="#f59e0b"/>
  <rect x="175" y="140" width="20" height="15" fill="#ef4444"/>
  
  <!-- Chart Bars -->
  <rect x="100" y="165" width="15" height="20" fill="#3b82f6"/>
  <rect x="120" y="165" width="15" height="25" fill="#10b981"/>
  <rect x="140" y="165" width="15" height="18" fill="#f59e0b"/>
  <rect x="160" y="165" width="15" height="30" fill="#ef4444"/>
  <rect x="180" y="165" width="15" height="22" fill="#8b5cf6"/>
  
  <!-- Manager Figure -->
  <circle cx="320" cy="160" r="30" fill="#f59e0b"/>
  <rect x="305" y="185" width="30" height="40" fill="#f59e0b"/>
  
  <!-- Business Suit -->
  <rect x="310" y="190" width="20" height="25" fill="#1e293b"/>
  <rect x="315" y="195" width="10" height="15" fill="#ffffff"/>
  
  <!-- Manager's Face -->
  <circle cx="320" cy="155" r="20" fill="#fbbf24"/>
  <circle cx="315" cy="150" r="3" fill="#1e293b"/>
  <circle cx="325" cy="150" r="3" fill="#1e293b"/>
  <path d="M 315 160 Q 320 165 325 160" stroke="#1e293b" stroke-width="2" fill="none"/>
  
  <!-- Documents and Reports -->
  <rect x="60" y="150" width="40" height="50" fill="#ef4444"/>
  <rect x="65" y="155" width="30" height="2" fill="#ffffff"/>
  <rect x="65" y="160" width="30" height="2" fill="#ffffff"/>
  <rect x="65" y="165" width="25" height="2" fill="#ffffff"/>
  
  <rect x="110" y="150" width="40" height="50" fill="#10b981"/>
  <rect x="115" y="155" width="30" height="2" fill="#ffffff"/>
  <rect x="115" y="160" width="30" height="2" fill="#ffffff"/>
  <rect x="115" y="165" width="25" height="2" fill="#ffffff"/>
  
  <!-- Financial Charts -->
  <rect x="250" y="150" width="80" height="50" rx="5" fill="#8b5cf6"/>
  <circle cx="270" cy="170" r="3" fill="#ffffff"/>
  <circle cx="290" cy="165" r="3" fill="#ffffff"/>
  <circle cx="310" cy="175" r="3" fill="#ffffff"/>
  <path d="M 270 170 L 290 165 L 310 175" stroke="#ffffff" stroke-width="2" fill="none"/>
  
  <!-- Calculator -->
  <rect x="350" y="220" width="60" height="40" rx="5" fill="#64748b"/>
  <rect x="355" y="225" width="50" height="30" fill="#1e293b"/>
  <rect x="360" y="230" width="8" height="5" fill="#10b981"/>
  <rect x="370" y="230" width="8" height="5" fill="#10b981"/>
  <rect x="380" y="230" width="8" height="5" fill="#10b981"/>
  <rect x="360" y="240" width="8" height="5" fill="#10b981"/>
  <rect x="370" y="240" width="8" height="5" fill="#10b981"/>
  <rect x="380" y="240" width="8" height="5" fill="#10b981"/>
  
  <!-- Success Metrics -->
  <circle cx="80" cy="80" r="15" fill="#10b981"/>
  <text x="80" y="85" text-anchor="middle" font-family="Arial, sans-serif" font-size="12" font-weight="bold" fill="#ffffff">✓</text>
  
  <circle cx="120" cy="80" r="15" fill="#3b82f6"/>
  <text x="120" y="85" text-anchor="middle" font-family="Arial, sans-serif" font-size="12" font-weight="bold" fill="#ffffff">📊</text>
  
  <circle cx="160" cy="80" r="15" fill="#f59e0b"/>
  <text x="160" y="85" text-anchor="middle" font-family="Arial, sans-serif" font-size="12" font-weight="bold" fill="#ffffff">💰</text>
  
  <!-- Text Labels -->
  <text x="200" y="50" text-anchor="middle" font-family="Arial, sans-serif" font-size="16" font-weight="bold" fill="#1e293b">Gestão Financeira Eficiente</text>
  <text x="200" y="280" text-anchor="middle" font-family="Arial, sans-serif" font-size="12" fill="#64748b">Controle Total da Clínica</text>
  
  <!-- Gradients -->
  <defs>
    <linearGradient id="deskGradient" x1="0%" y1="0%" x2="100%" y2="0%">
      <stop offset="0%" style="stop-color:#8b5cf6;stop-opacity:1" />
      <stop offset="100%" style="stop-color:#3b82f6;stop-opacity:1" />
    </linearGradient>
  </defs>
</svg>
